<svg width="101" height="109" viewBox="0 0 101 109" fill="none" xmlns="http://www.w3.org/2000/svg">
<g filter="url(#filter0_d_4_2121)">
<path d="M28.07 15.6723C28.07 9.05517 33.6424 3.48258 40.2598 3.48258C46.8771 3.48258 52.4493 9.05499 52.4493 15.6723V25.424C54.5392 22.6378 55.9321 19.1551 55.9321 15.6723C55.9319 6.96552 48.9664 0 40.2596 0C31.5528 0 24.5873 6.96552 24.5873 15.6723C24.5873 19.5034 25.9804 22.9862 28.07 25.424V15.6723Z" fill="white"/>
<g opacity="0.4">
<path d="M82.0527 41.7931C79.9631 41.7931 78.2218 42.4897 76.8285 43.5344C76.8285 38.6585 72.9975 34.8276 68.1217 34.8276C66.032 34.8276 63.9425 35.5241 62.2011 36.9172C60.808 33.4345 57.6734 31.3448 54.1906 31.3448C52.101 31.3448 50.3597 32.0414 48.9664 33.0861V15.6723C48.9664 10.7965 45.1355 6.96552 40.2596 6.96552C35.3837 6.96552 31.5528 10.7966 31.5528 15.6723V46.6688C24.5873 40.3998 16.9252 35.524 12.0493 40.3998C5.08383 47.3653 19.7114 60.948 30.8562 81.4964C38.8667 95.7756 50.0115 101 61.1562 101C77.5252 101 90.7595 87.7653 90.7595 71.3965V50.4999C90.7595 45.6242 86.9286 41.7931 82.0527 41.7931ZM87.2767 58.1622V71.3966C87.2767 84.9795 75.4355 97.5174 61.156 97.5174C47.9215 97.5174 40.2594 90.2037 33.9904 80.1036C20.756 57.1174 11.0042 46.6692 14.487 42.838C18.3179 39.0071 27.7215 47.3657 35.0352 55.0278V15.6723C35.0352 12.8861 37.473 10.4481 40.2594 10.4481C43.0456 10.4481 45.4836 12.8861 45.4836 15.6723V52.2412H48.9664V40.0515C48.9664 37.2652 51.4044 34.8272 54.1906 34.8272C56.977 34.8272 59.4149 37.2652 59.4149 40.0515V48.7583H62.8976V43.534C62.8976 40.7478 65.3356 38.3098 68.1218 38.3098C70.9082 38.3098 73.3461 40.7478 73.3461 43.534V52.2408H76.8288V50.4995C76.8288 47.7133 79.2669 45.2753 82.0531 45.2753C84.8395 45.2753 87.2773 47.7133 87.2773 50.4995L87.2767 58.1622Z" fill="white"/>
<path d="M87.2767 58.1622V71.3966C87.2767 84.9795 75.4355 97.5174 61.156 97.5174C47.9215 97.5174 40.2594 90.2037 33.9904 80.1036C20.756 57.1174 11.0042 46.6692 14.487 42.838C18.3179 39.0071 27.7215 47.3657 35.0352 55.0278V15.6723C35.0352 12.8861 37.473 10.4481 40.2594 10.4481C43.0456 10.4481 45.4836 12.8861 45.4836 15.6723V52.2412H48.9664V40.0515C48.9664 37.2652 51.4044 34.8272 54.1906 34.8272C56.977 34.8272 59.4149 37.2652 59.4149 40.0515V48.7583H62.8976V43.534C62.8976 40.7478 65.3356 38.3098 68.1218 38.3098C70.9082 38.3098 73.3461 40.7478 73.3461 43.534V52.2408H76.8288V50.4995C76.8288 47.7133 79.2669 45.2753 82.0531 45.2753C84.8395 45.2753 87.2773 47.7133 87.2773 50.4995L87.2767 58.1622Z" fill="white"/>
</g>
<path d="M82.0527 41.7931C79.963 41.7931 78.2218 42.4897 76.8285 43.5344C76.8285 38.6585 72.9975 34.8276 68.1217 34.8276C66.032 34.8276 63.9425 35.5241 62.2011 36.9172C60.808 33.4345 57.6734 31.3448 54.1906 31.3448C52.101 31.3448 50.3597 32.0414 48.9664 33.0861V15.6723C48.9664 10.7965 45.1355 6.96552 40.2596 6.96552C35.3837 6.96552 31.5528 10.7966 31.5528 15.6723V46.6688C24.5873 40.3998 16.9252 35.524 12.0493 40.3998C5.08383 47.3653 19.7114 60.948 30.8562 81.4964C38.8667 95.7756 50.0115 101 61.1562 101C77.5252 101 90.7595 87.7653 90.7595 71.3965V50.4999C90.7595 45.6242 86.9286 41.7931 82.0527 41.7931ZM87.2767 58.1622V71.3966C87.2767 84.9795 75.4356 97.5174 61.156 97.5174C47.9215 97.5174 40.2594 90.2037 33.9904 80.1036C20.756 57.1174 11.0042 46.6691 14.487 42.838C18.3179 39.0071 27.7215 47.3657 35.0352 55.0278V15.6723C35.0352 12.8861 37.473 10.4481 40.2594 10.4481C43.0456 10.4481 45.4836 12.8861 45.4836 15.6723V52.2412H48.9664V40.0515C48.9664 37.2652 51.4044 34.8272 54.1906 34.8272C56.977 34.8272 59.4149 37.2652 59.4149 40.0515V48.7583H62.8976V43.534C62.8976 40.7478 65.3356 38.3098 68.1218 38.3098C70.9082 38.3098 73.3461 40.7478 73.3461 43.534V52.2408H76.8288V50.4995C76.8288 47.7133 79.2669 45.2753 82.0531 45.2753C84.8395 45.2753 87.2773 47.7133 87.2773 50.4995V58.1622H87.2767Z" fill="white"/>
</g>
<defs>
<filter id="filter0_d_4_2121" x="-4" y="0" width="109" height="109" filterUnits="userSpaceOnUse" color-interpolation-filters="sRGB">
<feFlood flood-opacity="0" result="BackgroundImageFix"/>
<feColorMatrix in="SourceAlpha" type="matrix" values="0 0 0 0 0 0 0 0 0 0 0 0 0 0 0 0 0 0 127 0" result="hardAlpha"/>
<feOffset dy="4"/>
<feGaussianBlur stdDeviation="2"/>
<feComposite in2="hardAlpha" operator="out"/>
<feColorMatrix type="matrix" values="0 0 0 0 0 0 0 0 0 0 0 0 0 0 0 0 0 0 0.45 0"/>
<feBlend mode="normal" in2="BackgroundImageFix" result="effect1_dropShadow_4_2121"/>
<feBlend mode="normal" in="SourceGraphic" in2="effect1_dropShadow_4_2121" result="shape"/>
</filter>
</defs>
</svg>
